<svg width="48" height="48" viewBox="0 0 48 48" fill="none" xmlns="http://www.w3.org/2000/svg">
<path d="M4 30.083C4 28.881 4.266 27.688 4.971 26.715C7.045 23.85 12.671 18 24 18C35.33 18 40.955 23.851 43.029 26.715C43.734 27.688 44 28.881 44 30.083C44 32.1827 43.1659 34.1964 41.6812 35.6812C40.1964 37.1659 38.1827 38 36.083 38H11.917C9.81728 38 7.80356 37.1659 6.31884 35.6812C4.83411 34.1964 4 32.1827 4 30.083Z" stroke="white" stroke-width="3" stroke-linecap="round" stroke-linejoin="round"/>
<path d="M12 5C15 8 8 9.5 12 12.5M14 20V25M35.5 5C38.5 8 33 9.5 36 12.5M34 20V25M24 2C27 5.5 20 7 24 10.5M24 18V27M24 18C31.808 18 36.906 20.78 40 23.443M24 18C16.192 18 11.094 20.779 8 23.443" stroke="white" stroke-width="3" stroke-linecap="round"/>
</svg>
